<?xml version="1.0" encoding="UTF-8" standalone="no"?>
<!-- Created with Inkscape (http://www.inkscape.org/) -->

<svg
   xmlns:dc="http://purl.org/dc/elements/1.1/"
   xmlns:cc="http://creativecommons.org/ns#"
   xmlns:rdf="http://www.w3.org/1999/02/22-rdf-syntax-ns#"
   xmlns:svg="http://www.w3.org/2000/svg"
   xmlns="http://www.w3.org/2000/svg"
   xmlns:sodipodi="http://sodipodi.sourceforge.net/DTD/sodipodi-0.dtd"
   xmlns:inkscape="http://www.inkscape.org/namespaces/inkscape"
   width="436.28699"
   height="725.4068"
   id="svg5234"
   version="1.1"
   inkscape:version="0.48.2 r9819"
   sodipodi:docname="New document 58">
  <defs
     id="defs5236" />
  <sodipodi:namedview
     id="base"
     pagecolor="#ffffff"
     bordercolor="#666666"
     borderopacity="1.0"
     inkscape:pageopacity="0.0"
     inkscape:pageshadow="2"
     inkscape:zoom="0.35"
     inkscape:cx="491.52914"
     inkscape:cy="193.85578"
     inkscape:document-units="px"
     inkscape:current-layer="layer1"
     showgrid="false"
     fit-margin-top="0"
     fit-margin-left="0"
     fit-margin-right="0"
     fit-margin-bottom="0"
     inkscape:window-width="1440"
     inkscape:window-height="794"
     inkscape:window-x="0"
     inkscape:window-y="0"
     inkscape:window-maximized="1" />
  <metadata
     id="metadata5239">
    <rdf:RDF>
      <cc:Work
         rdf:about="">
        <dc:format>image/svg+xml</dc:format>
        <dc:type
           rdf:resource="http://purl.org/dc/dcmitype/StillImage" />
        <dc:title></dc:title>
      </cc:Work>
    </rdf:RDF>
  </metadata>
  <g
     inkscape:label="Layer 1"
     inkscape:groupmode="layer"
     id="layer1"
     transform="translate(-16.088,-23.811926)">
    <path
       sodipodi:type="arc"
       style="fill:#000000;fill-opacity:1;stroke:#000000;stroke-width:3;stroke-miterlimit:4;stroke-opacity:1;stroke-dasharray:none"
       id="path5242"
       sodipodi:cx="204.05081"
       sodipodi:cy="585.67169"
       sodipodi:rx="109.09647"
       sodipodi:ry="105.05586"
       d="m 313.14729,585.67169 c 0,58.02075 -48.84416,105.05586 -109.09648,105.05586 -60.25232,0 -109.096472,-47.03511 -109.096472,-105.05586 0,-58.02075 48.844152,-105.05586 109.096472,-105.05586 60.10174,0 108.8833,46.80904 109.09579,104.68443"
       sodipodi:start="0"
       sodipodi:end="6.2796497"
       sodipodi:open="true"
       transform="translate(-742.85714,-325.71429)" />
    <path
       sodipodi:type="arc"
       style="fill:#ffffff;fill-opacity:1;stroke:#ffffff;stroke-width:3;stroke-miterlimit:4;stroke-opacity:1;stroke-dasharray:none"
       id="path5244"
       sodipodi:cx="490.42905"
       sodipodi:cy="584.66156"
       sodipodi:rx="39.901024"
       sodipodi:ry="38.385796"
       d="m 530.33007,584.66156 c 0,21.19989 -17.8643,38.3858 -39.90102,38.3858 -22.03673,0 -39.90103,-17.18591 -39.90103,-38.3858 0,-21.19989 17.8643,-38.3858 39.90103,-38.3858 21.98165,0 39.82305,17.10331 39.90077,38.25008"
       sodipodi:start="0"
       sodipodi:end="6.2796497"
       sodipodi:open="true"
       transform="translate(-1028.7303,-326.72444)" />
    <path
       sodipodi:type="arc"
       style="fill:#000000;fill-opacity:1;stroke:#000000;stroke-width:3;stroke-miterlimit:4;stroke-opacity:1;stroke-dasharray:none"
       id="path5754"
       sodipodi:cx="494.97476"
       sodipodi:cy="492.73767"
       sodipodi:rx="29.294424"
       sodipodi:ry="24.243662"
       d="m 524.26919,492.73767 c 0,13.38941 -13.11556,24.24366 -29.29443,24.24366 -16.17886,0 -29.29442,-10.85425 -29.29442,-24.24366 0,-13.3894 13.11556,-24.24366 29.29442,-24.24366 16.13843,0 29.23718,10.80209 29.29424,24.15795"
       sodipodi:start="0"
       sodipodi:end="6.2796497"
       sodipodi:open="true"
       transform="matrix(0.27699281,0,0,0.33469966,-675.91077,93.017984)" />
    <path
       style="fill:#ffffff;fill-opacity:1;stroke:#ffffff;stroke-width:1px;stroke-linecap:butt;stroke-linejoin:miter;stroke-opacity:1"
       d="m -513.92857,219.14789 27.5,-47.14286 c 13.66491,6.51646 22.76282,14.55526 27.85714,23.92858 l -47.5,30 c -1.95173,-2.59556 -4.0344,-5.12566 -7.85714,-6.78572 z"
       id="path5760"
       inkscape:connector-curvature="0"
       sodipodi:nodetypes="ccccc" />
    <path
       transform="translate(28.685277,-231.17624)"
       sodipodi:type="arc"
       style="fill:#000000;fill-opacity:1;stroke:#000000;stroke-width:3;stroke-miterlimit:4;stroke-opacity:1;stroke-dasharray:none"
       id="path5242-1"
       sodipodi:cx="204.05081"
       sodipodi:cy="585.67169"
       sodipodi:rx="109.09647"
       sodipodi:ry="105.05586"
       d="m 313.14729,585.67169 c 0,58.02075 -48.84416,105.05586 -109.09648,105.05586 -60.25232,0 -109.096472,-47.03511 -109.096472,-105.05586 0,-58.02075 48.844152,-105.05586 109.096472,-105.05586 60.10174,0 108.8833,46.80904 109.09579,104.68443"
       sodipodi:start="0"
       sodipodi:end="6.2796497"
       sodipodi:open="true" />
    <path
       sodipodi:type="arc"
       style="fill:#00ff1f;fill-opacity:1;stroke:#00ff1f;stroke-width:3;stroke-miterlimit:4;stroke-opacity:1;stroke-dasharray:none"
       id="path5244-7"
       sodipodi:cx="490.42905"
       sodipodi:cy="584.66156"
       sodipodi:rx="39.901024"
       sodipodi:ry="38.385796"
       d="m 530.33007,584.66156 c 0,21.19989 -17.8643,38.3858 -39.90102,38.3858 -22.03673,0 -39.90103,-17.18591 -39.90103,-38.3858 0,-21.19989 17.8643,-38.3858 39.90103,-38.3858 21.98165,0 39.82305,17.10331 39.90077,38.25008"
       sodipodi:start="0"
       sodipodi:end="6.2796497"
       sodipodi:open="true"
       transform="translate(-257.1879,-232.18639)" />
    <path
       sodipodi:type="arc"
       style="fill:#000000;fill-opacity:1;stroke:#000000;stroke-width:3;stroke-miterlimit:4;stroke-opacity:1;stroke-dasharray:none"
       id="path5754-9"
       sodipodi:cx="494.97476"
       sodipodi:cy="492.73767"
       sodipodi:rx="29.294424"
       sodipodi:ry="24.243662"
       d="m 524.26919,492.73767 c 0,13.38941 -13.11556,24.24366 -29.29443,24.24366 -16.17886,0 -29.29442,-10.85425 -29.29442,-24.24366 0,-13.3894 13.11556,-24.24366 29.29442,-24.24366 16.13843,0 29.23718,10.80209 29.29424,24.15795"
       sodipodi:start="0"
       sodipodi:end="6.2796497"
       sodipodi:open="true"
       transform="matrix(0.27699281,0,0,0.33469966,95.631647,187.55603)" />
    <path
       style="fill:#ffffff;fill-opacity:1;stroke:#ffffff;stroke-width:1px;stroke-linecap:butt;stroke-linejoin:miter;stroke-opacity:1"
       d="m 257.61384,313.68594 27.50001,-47.14286 c 13.66491,6.51646 22.76282,14.55526 27.85714,23.92858 l -47.5,30 c -1.95173,-2.59556 -4.0344,-5.12566 -7.85715,-6.78572 z"
       id="path5760-2"
       inkscape:connector-curvature="0"
       sodipodi:nodetypes="ccccc" />
    <path
       transform="translate(-77.38075,-292.79555)"
       sodipodi:type="arc"
       style="fill:#000000;fill-opacity:1;stroke:#000000;stroke-width:3;stroke-miterlimit:4;stroke-opacity:1;stroke-dasharray:none"
       id="path5242-12"
       sodipodi:cx="204.05081"
       sodipodi:cy="585.67169"
       sodipodi:rx="109.09647"
       sodipodi:ry="105.05586"
       d="m 313.14729,585.67169 c 0,58.02075 -48.84416,105.05586 -109.09648,105.05586 -60.25232,0 -109.096472,-47.03511 -109.096472,-105.05586 0,-58.02075 48.844152,-105.05586 109.096472,-105.05586 60.10174,0 108.8833,46.80904 109.09579,104.68443"
       sodipodi:start="0"
       sodipodi:end="6.2796497"
       sodipodi:open="true" />
    <path
       sodipodi:type="arc"
       style="fill:#0032ff;fill-opacity:1;stroke:#001aff;stroke-width:3;stroke-miterlimit:4;stroke-opacity:1;stroke-dasharray:none"
       id="path5244-4"
       sodipodi:cx="490.42905"
       sodipodi:cy="584.66156"
       sodipodi:rx="39.901024"
       sodipodi:ry="38.385796"
       d="m 530.33007,584.66156 c 0,21.19989 -17.8643,38.3858 -39.90102,38.3858 -22.03673,0 -39.90103,-17.18591 -39.90103,-38.3858 0,-21.19989 17.8643,-38.3858 39.90103,-38.3858 21.98165,0 39.82305,17.10331 39.90077,38.25008"
       sodipodi:start="0"
       sodipodi:end="6.2796497"
       sodipodi:open="true"
       transform="translate(-363.25392,-293.8057)" />
    <path
       sodipodi:type="arc"
       style="fill:#000000;fill-opacity:1;stroke:#000000;stroke-width:3;stroke-miterlimit:4;stroke-opacity:1;stroke-dasharray:none"
       id="path5754-1"
       sodipodi:cx="494.97476"
       sodipodi:cy="492.73767"
       sodipodi:rx="29.294424"
       sodipodi:ry="24.243662"
       d="m 524.26919,492.73767 c 0,13.38941 -13.11556,24.24366 -29.29443,24.24366 -16.17886,0 -29.29442,-10.85425 -29.29442,-24.24366 0,-13.3894 13.11556,-24.24366 29.29442,-24.24366 16.13843,0 29.23718,10.80209 29.29424,24.15795"
       sodipodi:start="0"
       sodipodi:end="6.2796497"
       sodipodi:open="true"
       transform="matrix(0.27699281,0,0,0.33469966,-10.43437,125.93672)" />
    <path
       style="fill:#ffffff;fill-opacity:1;stroke:#ffffff;stroke-width:1px;stroke-linecap:butt;stroke-linejoin:miter;stroke-opacity:1"
       d="m 151.54782,252.06663 27.5,-47.14286 c 13.66491,6.51646 22.76282,14.55526 27.85714,23.92858 l -47.5,30 c -1.95173,-2.59556 -4.0344,-5.12566 -7.85714,-6.78572 z"
       id="path5760-4"
       inkscape:connector-curvature="0"
       sodipodi:nodetypes="ccccc" />
    <text
       xml:space="preserve"
       style="font-size:31.25769043px;font-style:normal;font-weight:normal;line-height:125%;letter-spacing:0px;word-spacing:0px;fill:#ffffff;fill-opacity:1;stroke:none;font-family:Sans"
       x="204.51094"
       y="203.37706"
       id="text5802"
       sodipodi:linespacing="125%"
       transform="matrix(0.74048279,0.65853335,-0.59143712,0.82448767,0,0)"><tspan
         sodipodi:role="line"
         id="tspan5804"
         x="204.51094"
         y="203.37706">Freedom</tspan></text>
    <text
       xml:space="preserve"
       style="font-size:35.02164459px;font-style:normal;font-weight:normal;line-height:125%;letter-spacing:0px;word-spacing:0px;fill:#ffffff;fill-opacity:1;stroke:none;font-family:Sans"
       x="-32.279781"
       y="507.1459"
       id="text5806"
       sodipodi:linespacing="125%"
       transform="matrix(0.95367652,-0.41300788,0.46489098,0.84724363,0,0)"><tspan
         sodipodi:role="line"
         id="tspan5808"
         x="-32.279781"
         y="507.1459">Privacy</tspan></text>
    <g
       id="g8471"
       transform="matrix(3.1872039,0,0,3.1163279,-2588.7377,-569.86245)">
      <path
         transform="translate(117.5,-65.714286)"
         sodipodi:open="true"
         sodipodi:end="6.2796497"
         sodipodi:start="0"
         d="m 833.57145,279.14789 c 0,11.83467 -10.47334,21.42857 -23.39286,21.42857 -12.91952,0 -23.39286,-9.5939 -23.39286,-21.42857 0,-11.83468 10.47334,-21.42857 23.39286,-21.42857 12.88723,0 23.34715,9.54778 23.39271,21.35281"
         sodipodi:ry="21.428572"
         sodipodi:rx="23.392857"
         sodipodi:cy="279.14789"
         sodipodi:cx="810.17859"
         id="path8459"
         style="fill:#f7ff00;fill-opacity:1;stroke:#000000;stroke-width:3;stroke-miterlimit:4;stroke-opacity:1;stroke-dasharray:none"
         sodipodi:type="arc" />
      <path
         sodipodi:nodetypes="cc"
         inkscape:connector-curvature="0"
         id="path8463"
         d="m 907.85715,224.50504 c 22.09636,-3.31149 18.60184,2.80392 18.57143,2.85714"
         style="fill:none;stroke:#000000;stroke-width:2;stroke-linecap:butt;stroke-linejoin:miter;stroke-miterlimit:4;stroke-opacity:1;stroke-dasharray:none" />
      <path
         sodipodi:nodetypes="cc"
         inkscape:connector-curvature="0"
         id="path8465"
         d="m 914.46954,200.70274 c 12.09243,6.2626 8.6026,7.13506 8.57143,7.14285"
         style="fill:none;stroke:#000000;stroke-width:1px;stroke-linecap:butt;stroke-linejoin:miter;stroke-opacity:1" />
      <path
         transform="translate(120.67096,-56.598169)"
         sodipodi:open="true"
         sodipodi:end="6.2796497"
         sodipodi:start="0"
         d="m 799.64286,264.86218 c 0,2.16969 -2.07868,3.92857 -4.64286,3.92857 -2.56418,0 -4.64286,-1.75888 -4.64286,-3.92857 0,-2.16969 2.07868,-3.92857 4.64286,-3.92857 2.55777,0 4.63378,1.75043 4.64283,3.91468"
         sodipodi:ry="3.9285715"
         sodipodi:rx="4.6428571"
         sodipodi:cy="264.86218"
         sodipodi:cx="795"
         id="path8467"
         style="fill:#ffffff;fill-opacity:1;stroke:#000000;stroke-width:1;stroke-miterlimit:4;stroke-opacity:1;stroke-dasharray:none"
         sodipodi:type="arc" />
      <path
         transform="translate(0.50507627,1.2626907)"
         sodipodi:open="true"
         sodipodi:end="6.2796497"
         sodipodi:start="0"
         d="m 915.71429,209.32646 c 0,0.49311 -0.3198,0.89286 -0.71429,0.89286 -0.39449,0 -0.71429,-0.39975 -0.71429,-0.89286 0,-0.49311 0.3198,-0.89286 0.71429,-0.89286 0.3935,0 0.71289,0.39783 0.71428,0.88971"
         sodipodi:ry="0.89285713"
         sodipodi:rx="0.71428573"
         sodipodi:cy="209.32646"
         sodipodi:cx="915"
         id="path8469"
         style="fill:#030000;fill-opacity:1;stroke:#000000;stroke-width:1;stroke-miterlimit:4;stroke-opacity:1;stroke-dasharray:none"
         sodipodi:type="arc" />
    </g>
    <path
       style="fill:none;stroke:#000000;stroke-width:8;stroke-linecap:butt;stroke-linejoin:miter;stroke-miterlimit:4;stroke-opacity:1;stroke-dasharray:none"
       d="m 367.14286,160.93361 -2.85715,328.57143 C 270,745.21932 271.42857,745.21932 271.42857,745.21932"
       id="path8478"
       inkscape:connector-curvature="0" />
    <path
       style="fill:none;stroke:#000000;stroke-width:8;stroke-linecap:butt;stroke-linejoin:miter;stroke-miterlimit:4;stroke-opacity:1;stroke-dasharray:none"
       d="m 365.71429,489.50504 82.85714,255.71428"
       id="path8480"
       inkscape:connector-curvature="0" />
    <path
       style="fill:none;stroke:#000000;stroke-width:8;stroke-linecap:butt;stroke-linejoin:miter;stroke-miterlimit:4;stroke-opacity:1;stroke-dasharray:none"
       d="m 364.28571,256.64789 c -54.28571,70 -54.28571,70 -54.28571,70"
       id="path8482"
       inkscape:connector-curvature="0" />
    <path
       style="fill:none;stroke:#000000;stroke-width:8;stroke-linecap:butt;stroke-linejoin:miter;stroke-miterlimit:4;stroke-opacity:1;stroke-dasharray:none"
       d="M 364.28571,235.21932 C 188.57143,249.50504 188.57143,249.50504 188.57143,249.50504"
       id="path8484"
       inkscape:connector-curvature="0" />
  </g>
</svg>
