<?xml version="1.0" encoding="UTF-8" standalone="no"?>
<!-- Created with Inkscape (http://www.inkscape.org/) -->

<svg
   xmlns:dc="http://purl.org/dc/elements/1.1/"
   xmlns:cc="http://creativecommons.org/ns#"
   xmlns:rdf="http://www.w3.org/1999/02/22-rdf-syntax-ns#"
   xmlns:svg="http://www.w3.org/2000/svg"
   xmlns="http://www.w3.org/2000/svg"
   xmlns:xlink="http://www.w3.org/1999/xlink"
   version="1.1"
   width="810"
   height="814.28571"
   id="svg2">
  <defs
     id="defs4">
    <linearGradient
       id="linearGradient3824">
      <stop
         id="stop3826"
         style="stop-color:#ff00e7;stop-opacity:1"
         offset="0" />
      <stop
         id="stop3848"
         style="stop-color:#ff0063;stop-opacity:1"
         offset="0.14262004" />
      <stop
         id="stop3846"
         style="stop-color:#ff9800;stop-opacity:1"
         offset="0.29764181" />
      <stop
         id="stop3844"
         style="stop-color:#ffd600;stop-opacity:1"
         offset="0.39622733" />
      <stop
         id="stop3850"
         style="stop-color:#eaff00;stop-opacity:1"
         offset="0.49903113" />
      <stop
         id="stop3842"
         style="stop-color:#3fff00;stop-opacity:1"
         offset="0.59650815" />
      <stop
         id="stop3840"
         style="stop-color:#00ffcc;stop-opacity:1"
         offset="0.71045828" />
      <stop
         id="stop3838"
         style="stop-color:#00f1ff;stop-opacity:1"
         offset="0.803662" />
      <stop
         id="stop3836"
         style="stop-color:#0079ff;stop-opacity:1"
         offset="0.90380263" />
      <stop
         id="stop3834"
         style="stop-color:#0011ff;stop-opacity:1"
         offset="1" />
    </linearGradient>
    <linearGradient
       x1="1346.4263"
       y1="357.75177"
       x2="1935.7659"
       y2="357.75177"
       id="linearGradient3830"
       xlink:href="#linearGradient3824"
       gradientUnits="userSpaceOnUse"
       gradientTransform="translate(-1282.0203,75.959394)" />
  </defs>
  <metadata
     id="metadata7">
    <rdf:RDF>
      <cc:Work
         rdf:about="">
        <dc:format>image/svg+xml</dc:format>
        <dc:type
           rdf:resource="http://purl.org/dc/dcmitype/StillImage" />
        <dc:title></dc:title>
      </cc:Work>
    </rdf:RDF>
  </metadata>
  <g
     transform="translate(46.428585,-53.076456)"
     id="layer1">
    <path
       d="m 781.42856,391.64789 a 390,392.14285 0 1 1 -780.0000017,0 390,392.14285 0 1 1 780.0000017,0 z"
       transform="translate(-32.857143,68.571421)"
       id="path3052"
       style="fill:#000000;fill-opacity:1;stroke:#f200ff;stroke-width:30;stroke-miterlimit:4;stroke-opacity:1;stroke-dasharray:none" />
    <path
       d="m 172.33678,679.83212 c 4.8158,-1.20882 10.3802,-6.7201 14.2345,-14.09848 2.252,-4.3111 2.7145,-6.47721 2.7111,-12.69779 0,-7.67042 -0.046,-7.80899 -7.522,-24.74299 -3.5262,-7.98769 -2.7021,-9.21095 11.5764,-17.18364 28.2475,-15.77246 116.3287,-60.95904 145.2793,-74.52978 5.6536,-2.65015 10.1536,-4.93244 10,-5.07175 -0.5678,-0.51508 -51.1092,-28.66122 -52.2576,-29.10192 -0.6552,-0.25141 -20.5031,10.87108 -44.1065,24.71665 -73.1895,42.93251 -84.1956,48.91343 -90.0105,48.91343 -2.6911,0 -3.941,-0.98658 -8.5514,-6.75 -6.2988,-7.87407 -12.889,-12.6231 -20.6463,-14.87822 -14.45109,-4.20104 -33.099085,4.77944 -38.250289,18.42052 -4.049,10.72255 -0.8357,24.37739 7.557199,32.11371 5.0191,4.62647 9.4529,7.01117 21.88479,11.77087 5.0058,1.91649 9.9627,4.32211 11.0156,5.34583 1.8835,1.83144 1.8627,1.99166 -1.2962,9.98566 -5.8914,14.90861 -6.0708,23.32493 -0.7187,33.71312 3.3004,6.40596 6.9903,10.121 12.4524,12.53714 7.9751,3.52777 16.7116,4.03188 26.6482,1.53764 z m 377.8862,-9.21197 c 10.3424,-3.1126 15.8276,-10.70065 15.9148,-22.01582 0.026,-3.33766 -1.0169,-11.56369 -2.3169,-18.28006 -2.9552,-15.26841 -2.7423,-15.67726 8.6673,-16.64173 10.6019,-0.89619 15.2096,-2.50761 19.5333,-6.83135 5.0105,-5.01049 8.185,-15.22618 8.2026,-26.39641 0.023,-14.78791 -6.7424,-23.69006 -20.1143,-26.46607 -12.094,-2.5107 -25.0756,3.85445 -33.853,16.5988 -3.4916,5.06974 -3.9058,5.36135 -5.8391,4.11166 -9.7613,-6.30972 -73.5275,-44.97512 -90.5809,-54.92474 -11.825,-6.89921 -28.1201,-16.45509 -36.2114,-21.23529 l -14.7115,-8.69127 1.5765,-2.40601 c 0.867,-1.32331 1.9796,-2.40601 2.4724,-2.40601 0.4928,0 4.3785,2.16819 8.635,4.8182 4.2565,2.65001 8.2669,5.13014 8.912,5.51141 2.538,1.4999 124.3699,-61.14734 156.6282,-80.53984 6.0409,-3.63159 10.4529,-5.67179 11.5,-5.31789 0.9344,0.31581 3.9488,3.9896 6.6988,8.16397 5.9896,9.09191 13.0517,14.81186 21.5547,17.45829 10.7993,3.36112 20.286,2.17973 26.5316,-3.30401 11.5178,-10.11281 14.0068,-38.2115 4.3581,-49.20074 -3.8991,-4.44079 -9.3556,-6.51306 -20.3951,-7.74558 -4.9744,-0.55538 -9.6079,-1.47753 -10.2968,-2.04924 -2.0664,-1.71499 -1.4461,-6.50888 2.355,-18.1995 6.3458,-19.51692 5.6314,-33.66612 -2.0398,-40.40152 -7.6383,-6.70649 -27.2687,-8.23159 -38.6746,-3.00465 -10.5452,4.8325 -14.3931,13.20328 -14.3931,31.3111 0,6.6 0.3849,14.71734 0.8553,18.03854 l 0.8552,6.03855 -5.8552,3.90434 c -12.3795,8.25475 -37.4059,22.89584 -49.7746,29.1194 -19.7314,9.92821 -22.5571,8.64138 -16.2192,-7.38609 19.0918,-48.28018 14.524,-95.57493 -13.2094,-136.76803 -28.1813,-41.8584 -76.4104,-69.44671 -121.4047,-69.44671 -40.6904,0 -82.7606,16.4288 -111.6069,43.58349 -18.5986,17.50796 -30.7179,36.30558 -38.6044,59.87749 -7.4508,22.26961 -9.5803,50.30063 -5.8669,77.22575 1.7979,13.03652 1.3826,15.31327 -2.7933,15.31327 -4.3305,0 -38.6402,-19.74839 -47.2132,-27.17553 l -3.8374,-3.32447 2.7799,-5.5 c 5.3418,-10.56873 4.1529,-30.03218 -2.4119,-39.48521 -5.3349,-7.68205 -15.1978,-11.90648 -27.69329,-11.86142 -12.9351,0.0466 -20.9643,5.6767 -24.532399,17.20197 -2.4939,8.05548 -2.4856,13.83947 0.033,22.64466 3.767699,13.17499 2.606699,15.49313 -9.8041,19.57545 -19.6315,6.45745 -23.6934,11.77404 -23.6265,30.92455 0.043,12.19034 2.1339,18.95688 7.9643,25.7684 8.295,9.69075 23.9192,12.66947 35.846499,6.834 3.6754,-1.79818 7.2744,-4.68915 10.3738,-8.33295 7.98399,-9.38626 10.01159,-11.26945 12.13389,-11.26945 1.1229,0 6.22,2.53687 11.3269,5.6375 5.1068,3.10062 29.9851,17.56046 55.2851,32.13297 63.7932,36.74413 85.4686,49.49315 96.5,56.75932 12.5071,8.2381 46.4521,27.2129 71.8124,40.14213 51.4679,26.23946 142.6228,79.7632 152.2664,89.40681 2.4971,2.49714 2.4534,7.08218 -0.1385,14.51472 -2.8732,8.23944 -2.7783,14.89628 0.3085,21.63878 5.1661,11.28426 18.5688,16.43561 32.1374,12.35207 z M 335.83678,447.10006 c -29.3402,-6.19621 -52.2217,-24.65909 -67.003,-54.06421 -6.5246,-12.97946 -9.2556,-20.97072 -13.3954,-39.19543 -0.5455,-2.40129 -1.129,-2.72866 -5.3479,-3 -3.5673,-0.22943 -4.8177,-0.73632 -5.068,-2.05457 -0.3017,-1.58886 0.7862,-1.75 11.8143,-1.75 11.0282,0 12.1161,0.16114 11.8144,1.75 -0.2513,1.32301 -1.5054,1.82503 -5.1402,2.05752 l -4.8078,0.30752 0.6353,3.19248 c 1.5823,7.95066 5.906,21.60576 9.4276,29.77435 10.8153,25.08618 25.9872,41.98924 46.5707,51.88441 11.669,5.60963 18.5198,7.58595 31.25,9.01493 15.5174,1.74184 33.2932,-1.36087 51.6942,-9.02303 26.3016,-10.95195 45.4358,-30.07712 53.0921,-53.06711 2.9362,-8.81667 5.3758,-21.21068 5.4289,-27.5807 0.034,-4.12496 -0.023,-4.19443 -3.7068,-4.5 -2.615,-0.21691 -3.8416,-0.83735 -4.0734,-2.06037 -0.2961,-1.56245 0.6408,-1.75 8.7417,-1.75 8.4067,0 9.0733,0.14695 9.0733,2 0,1.61905 -0.6666,2 -3.5,2 l -3.5,0 0,6.93462 c 0,10.91133 -3.6649,25.5887 -9.0174,36.11348 -11.3885,22.39343 -31.4981,38.66922 -60.3614,48.85368 -17.4992,6.17463 -37.7761,7.71984 -54.6212,4.16243 z M 295.07768,315.4686 c -16.5252,-8.23488 -20.8766,-29.90804 -8.859,-44.12472 1.4841,-1.75559 5.4521,-4.56809 8.8179,-6.25 21.9876,-10.9873 46.3217,9.43692 39.4415,33.10412 -2.0487,7.04737 -8.3363,14.32118 -15.1032,17.47226 -7.2586,3.38006 -17.2764,3.29691 -24.2972,-0.20166 z m 105.2382,0.26139 c -6.5337,-3.10993 -11.2211,-7.88906 -14.2704,-14.54955 -2.0904,-4.56596 -2.3882,-6.43368 -1.9943,-12.50609 0.5239,-8.07562 2.3697,-12.4146 7.6458,-17.97323 6.0882,-6.41423 10.3606,-8.14127 20.1398,-8.14127 6.837,0 9.309,0.43031 12.6345,2.19937 5.8318,3.10228 10.3026,7.89747 13.1383,14.09135 2.0465,4.47016 2.3748,6.48155 2.0412,12.50609 -0.4596,8.30086 -2.6343,13.49952 -7.814,18.67919 -5.3259,5.32591 -10.3533,7.37822 -19,7.75619 -6.2742,0.27426 -8.3206,-0.0627 -12.5209,-2.06205 z"
       id="path3822"
       style="fill:url(#linearGradient3830);fill-opacity:1" />
  </g>
</svg>
