<?xml version="1.0" encoding="UTF-8" standalone="no"?>
<!-- Created with Inkscape (http://www.inkscape.org/) -->

<svg
   xmlns:dc="http://purl.org/dc/elements/1.1/"
   xmlns:cc="http://creativecommons.org/ns#"
   xmlns:rdf="http://www.w3.org/1999/02/22-rdf-syntax-ns#"
   xmlns:svg="http://www.w3.org/2000/svg"
   xmlns="http://www.w3.org/2000/svg"
   xmlns:xlink="http://www.w3.org/1999/xlink"
   xmlns:sodipodi="http://sodipodi.sourceforge.net/DTD/sodipodi-0.dtd"
   xmlns:inkscape="http://www.inkscape.org/namespaces/inkscape"
   width="745"
   height="745"
   id="svg2"
   version="1.1"
   inkscape:version="0.48.2 r9819"
   sodipodi:docname="New document 1">
  <defs
     id="defs4">
    <linearGradient
       inkscape:collect="always"
       id="linearGradient3881">
      <stop
         style="stop-color:#e4f064;stop-opacity:1;"
         offset="0"
         id="stop3883" />
      <stop
         style="stop-color:#e4f064;stop-opacity:0;"
         offset="1"
         id="stop3885" />
    </linearGradient>
    <linearGradient
       inkscape:collect="always"
       id="linearGradient3869">
      <stop
         style="stop-color:#e4f064;stop-opacity:1;"
         offset="0"
         id="stop3871" />
      <stop
         style="stop-color:#e4f064;stop-opacity:0;"
         offset="1"
         id="stop3873" />
    </linearGradient>
    <linearGradient
       id="linearGradient3773">
      <stop
         style="stop-color:#a5a95b;stop-opacity:1;"
         offset="0"
         id="stop3775" />
      <stop
         style="stop-color:#f9ff7e;stop-opacity:1;"
         offset="1"
         id="stop3777" />
    </linearGradient>
    <linearGradient
       inkscape:collect="always"
       xlink:href="#linearGradient3773"
       id="linearGradient3779"
       x1="192.71393"
       y1="628.53949"
       x2="376.11746"
       y2="586.11316"
       gradientUnits="userSpaceOnUse" />
    <linearGradient
       inkscape:collect="always"
       xlink:href="#linearGradient3869"
       id="linearGradient3875"
       x1="174.0313"
       y1="589.14789"
       x2="191.21429"
       y2="589.14789"
       gradientUnits="userSpaceOnUse"
       gradientTransform="translate(-4.0406106,73.741135)" />
    <linearGradient
       inkscape:collect="always"
       xlink:href="#linearGradient3881"
       id="linearGradient3887"
       x1="183.42857"
       y1="667.54077"
       x2="183.71428"
       y2="618.61218"
       gradientUnits="userSpaceOnUse"
       gradientTransform="translate(-4.0406106,73.741135)" />
  </defs>
  <sodipodi:namedview
     id="base"
     pagecolor="#ffffff"
     bordercolor="#666666"
     borderopacity="1.0"
     inkscape:pageopacity="0.0"
     inkscape:pageshadow="2"
     inkscape:zoom="0.49497475"
     inkscape:cx="336.25781"
     inkscape:cy="469.78973"
     inkscape:document-units="px"
     inkscape:current-layer="layer1"
     showgrid="false"
     inkscape:window-width="1440"
     inkscape:window-height="790"
     inkscape:window-x="0"
     inkscape:window-y="0"
     inkscape:window-maximized="1" />
  <metadata
     id="metadata7">
    <rdf:RDF>
      <cc:Work
         rdf:about="">
        <dc:format>image/svg+xml</dc:format>
        <dc:type
           rdf:resource="http://purl.org/dc/dcmitype/StillImage" />
        <dc:title></dc:title>
      </cc:Work>
    </rdf:RDF>
  </metadata>
  <g
     inkscape:label="Layer 1"
     inkscape:groupmode="layer"
     id="layer1"
     transform="translate(0,-307.36218)">
    <path
       sodipodi:type="arc"
       style="fill:url(#linearGradient3779);fill-opacity:1;stroke:#000000;stroke-width:2;stroke-miterlimit:4;stroke-opacity:1;stroke-dasharray:none"
       id="path2987"
       sodipodi:cx="282.14285"
       sodipodi:cy="603.79077"
       sodipodi:rx="95"
       sodipodi:ry="92.85714"
       d="m 377.14285,603.79077 a 95,92.85714 0 1 1 -5.9e-4,-0.3283"
       sodipodi:start="0"
       sodipodi:end="6.2796497"
       sodipodi:open="true"
       transform="translate(85.245106,13.741131)" />
    <path
       style="fill:#c8cd74;fill-opacity:1;stroke:#000000;stroke-width:2;stroke-linecap:butt;stroke-linejoin:miter;stroke-miterlimit:4;stroke-opacity:1;stroke-dasharray:none"
       d="m 271.67368,606.81762 c -16.09238,19.23187 -44.14636,33.86312 -85,43.57143 -5.19513,7.474 -5.9227,14.64488 5,19.28571 30.96758,-1.64893 55.85576,-10.39049 97.14285,0 -14.98694,-17.47513 -17.21904,-39.73333 -17.14285,-62.85714 z"
       id="path2991"
       inkscape:connector-curvature="0"
       sodipodi:nodetypes="ccccc" />
    <path
       style="fill:none;stroke:#000000;stroke-width:2;stroke-linecap:butt;stroke-linejoin:miter;stroke-miterlimit:4;stroke-opacity:1;stroke-dasharray:none"
       d="m 363.81653,524.67476 c -0.86792,28.10244 -86.98745,86.97955 -90.71428,87.14286"
       id="path2993"
       inkscape:connector-curvature="0"
       sodipodi:nodetypes="cc" />
    <path
       style="fill:none;stroke:#000000;stroke-width:2;stroke-linecap:butt;stroke-linejoin:miter;stroke-miterlimit:4;stroke-opacity:1;stroke-dasharray:none"
       d="m 415.95939,538.24619 c -18.36252,32.26883 -142.07438,85.8232 -144.28571,85.35714"
       id="path2995"
       inkscape:connector-curvature="0"
       sodipodi:nodetypes="cc" />
    <path
       style="fill:none;stroke:#000000;stroke-width:2;stroke-linecap:butt;stroke-linejoin:miter;stroke-miterlimit:4;stroke-opacity:1;stroke-dasharray:none"
       d="M 451.67368,576.81762 C 346.38443,616.30699 273.86955,630.37928 273.81653,630.38905"
       id="path2997"
       inkscape:connector-curvature="0"
       sodipodi:nodetypes="cc" />
    <path
       style="fill:none;stroke:#000000;stroke-width:2;stroke-linecap:butt;stroke-linejoin:miter;stroke-miterlimit:4;stroke-opacity:1;stroke-dasharray:none"
       d="m 460.2451,637.24347 c -92.36183,-12.12926 -185,0.28843 -185,0.28843"
       id="path2999"
       inkscape:connector-curvature="0"
       sodipodi:nodetypes="cc" />
    <path
       style="fill:none;stroke:#000000;stroke-width:2;stroke-linecap:butt;stroke-linejoin:miter;stroke-miterlimit:4;stroke-opacity:1;stroke-dasharray:none"
       d="m 373.81653,711.10333 c 9.30546,-35.92216 -90.09549,-51.75755 -91.42857,-51.42857"
       id="path3001"
       inkscape:connector-curvature="0"
       sodipodi:nodetypes="cc" />
    <path
       style="fill:none;stroke:#000000;stroke-width:2;stroke-linecap:butt;stroke-linejoin:miter;stroke-miterlimit:4;stroke-opacity:1;stroke-dasharray:none"
       d="M 429.53082,687.5319 C 400.09476,648.24619 278.10225,648.24619 278.10225,648.24619"
       id="path3003"
       inkscape:connector-curvature="0"
       sodipodi:nodetypes="cc" />
    <path
       style="fill:none;stroke:#000000;stroke-width:1px;stroke-linecap:butt;stroke-linejoin:miter;stroke-opacity:1"
       d="m 271.67368,626.81762 c -34.40337,24.97963 -88.21411,31.07141 -88.21429,31.07143"
       id="path3781"
       inkscape:connector-curvature="0"
       sodipodi:nodetypes="cc" />
    <rect
       style="fill:#aa4400;fill-opacity:1;stroke:#000000;stroke-width:2;stroke-miterlimit:4;stroke-opacity:1;stroke-dasharray:none"
       id="rect3783-4"
       width="222.85715"
       height="79.285713"
       x="165.80348"
       y="784.93036"
       rx="0"
       ry="0" />
    <path
       style="fill:#aa4400;stroke:#000000;stroke-width:2;stroke-linecap:butt;stroke-linejoin:miter;stroke-miterlimit:4;stroke-opacity:1;stroke-dasharray:none"
       d="m 165.0892,863.14465 -32.85713,-40 0,-80.71428 222.14286,0 33.57143,41.42857 -222.14287,0.71429 z"
       id="path3803"
       inkscape:connector-curvature="0" />
    <path
       style="fill:none;stroke:#000000;stroke-width:2;stroke-linecap:butt;stroke-linejoin:miter;stroke-miterlimit:4;stroke-opacity:1;stroke-dasharray:none"
       d="M 166.51778,785.28752 132.23207,741.71609"
       id="path3805"
       inkscape:connector-curvature="0" />
    <path
       sodipodi:type="arc"
       style="fill:#1a1a1a;fill-opacity:1;stroke:#000000;stroke-width:2;stroke-miterlimit:4;stroke-opacity:1;stroke-dasharray:none"
       id="path3807"
       sodipodi:cx="187.14285"
       sodipodi:cy="653.07648"
       sodipodi:rx="94.285713"
       sodipodi:ry="19.285715"
       d="m 281.42857,653.07648 a 94.285713,19.285715 0 1 1 -5.9e-4,-0.0682"
       sodipodi:start="0"
       sodipodi:end="6.2796497"
       sodipodi:open="true"
       transform="translate(72.589206,110.06819)" />
    <path
       sodipodi:type="arc"
       style="fill:#ff0000;fill-opacity:1;stroke:#000000;stroke-width:2;stroke-miterlimit:4;stroke-opacity:1;stroke-dasharray:none"
       id="path3809"
       sodipodi:cx="172.60982"
       sodipodi:cy="606.75867"
       sodipodi:rx="17.803938"
       sodipodi:ry="4.1668792"
       d="m 190.41376,606.75867 a 17.803938,4.1668792 0 1 1 -1.2e-4,-0.0147"
       sodipodi:start="0"
       sodipodi:end="6.2796497"
       sodipodi:open="true"
       transform="translate(88.664996,152.28538)" />
    <rect
       style="fill:#000000;fill-opacity:1;stroke:#000000;stroke-width:2.35457063;stroke-miterlimit:4;stroke-opacity:1;stroke-dasharray:none"
       id="rect3827"
       width="4.5456862"
       height="24.151243"
       x="259.12827"
       y="735.01904"
       ry="3.1501622" />
    <rect
       style="fill:#e4f064;fill-opacity:1;stroke:#000000;stroke-width:2;stroke-miterlimit:4;stroke-opacity:1;stroke-dasharray:none"
       id="rect3829"
       width="33.214279"
       height="7.1428657"
       x="161.67369"
       y="680.03186"
       ry="3.1501622"
       rx="3.2142856" />
    <rect
       style="fill:#e4f064;fill-opacity:1;stroke:#000000;stroke-width:1.47220778;stroke-miterlimit:4;stroke-opacity:1;stroke-dasharray:none"
       id="rect3829-7"
       width="23.742197"
       height="5.414453"
       x="166.85225"
       y="674.61731"
       ry="2.3878939"
       rx="2.2976325" />
    <rect
       style="fill:#e4f064;fill-opacity:1;stroke:#000000;stroke-width:1.47220778;stroke-miterlimit:4;stroke-opacity:1;stroke-dasharray:none"
       id="rect3829-7-2"
       width="23.742197"
       height="5.414453"
       x="167.3026"
       y="686.96747"
       ry="2.3878939"
       rx="2.2976325" />
    <path
       style="fill:url(#linearGradient3875);fill-opacity:1;stroke:#000000;stroke-width:1px;stroke-linecap:butt;stroke-linejoin:miter;stroke-opacity:1"
       d="m 185.2451,651.46047 c -4.16667,0.83953 -8.33333,0.98812 -12.5,5 -1.36403,3.92747 -2.64564,8.08162 -2.14285,17.14286 l 14.28571,0.71429 c -0.27429,-2.84159 0.64789,-4.88554 1.78572,-6.78572 -7.33477,-8.24496 -2.3879,-11.31871 -1.42858,-16.07143 z"
       id="path3867"
       inkscape:connector-curvature="0"
       sodipodi:nodetypes="cccccc" />
    <path
       style="fill:url(#linearGradient3887);fill-opacity:1;stroke:#000000;stroke-width:1px;stroke-linecap:butt;stroke-linejoin:miter;stroke-opacity:1"
       d="m 174.88796,692.17476 c 0.96353,21.66925 -0.42532,40.28041 -8.92857,49.64286 l 25,-0.35715 c -11.06505,-24.27987 -6.97883,-34.67107 -7.5,-49.28571 z"
       id="path3879"
       inkscape:connector-curvature="0"
       sodipodi:nodetypes="ccccc" />
    <path
       style="fill:#abb359;fill-opacity:1;stroke:#000000;stroke-width:0.90620369px;stroke-linecap:butt;stroke-linejoin:miter;stroke-opacity:1"
       d="m 161.38282,754.80638 c 33.1638,19.7844 33.1638,19.10218 33.1638,19.10218 l 4.29901,-2.04666 -32.54965,-19.78441 z"
       id="path3889"
       inkscape:connector-curvature="0" />
    <path
       style="fill:#abb359;fill-opacity:1;stroke:#000000;stroke-width:0.90620369px;stroke-linecap:butt;stroke-linejoin:miter;stroke-opacity:1"
       d="m 193.93247,773.90856 c 4.00205,0.69818 8.90325,0.79692 11.05461,2.72889 9.63084,-3.05591 7.65896,-4.32679 9.21216,-6.13999 -4.57007,-0.45818 -8.84465,-1.40885 -15.35361,1.36444 z"
       id="path3891"
       inkscape:connector-curvature="0"
       sodipodi:nodetypes="ccccc" />
    <path
       style="fill:#abb359;fill-opacity:1;stroke:#000000;stroke-width:0.90620369px;stroke-linecap:butt;stroke-linejoin:miter;stroke-opacity:1"
       d="m 160.76867,754.46526 -15.3536,-3.06999 c 2.19078,-4.88688 7.2252,-7.33635 14.12532,-8.18665 3.40254,1.61384 7.24882,2.70997 6.75559,8.86887 z"
       id="path3893"
       inkscape:connector-curvature="0"
       sodipodi:nodetypes="ccccc" />
    <path
       sodipodi:type="arc"
       style="fill:#abb359;fill-opacity:1;stroke:#000000;stroke-width:2;stroke-miterlimit:4;stroke-opacity:1;stroke-dasharray:none"
       id="path3895"
       sodipodi:cx="18.940361"
       sodipodi:cy="703.60699"
       sodipodi:rx="3.7880721"
       sodipodi:ry="4.2931485"
       d="m 22.728433,703.60699 a 3.7880721,4.2931485 0 1 1 -2.4e-5,-0.0152"
       sodipodi:start="0"
       sodipodi:end="6.2796497"
       sodipodi:open="true"
       transform="matrix(1.6278174,0,0,1.8829688,43.786106,-571.96643)" />
    <path
       style="fill:#abb359;fill-opacity:1;stroke:#000000;stroke-width:1.75075114px;stroke-linecap:butt;stroke-linejoin:miter;stroke-opacity:1"
       d="m 74.617556,744.34423 c 30.831454,0 31.242544,0 31.242544,0 6.62028,5.23074 5.41273,10.46147 0,15.69221 -6.099914,1.28725 -13.591684,2.17198 -28.364944,0.95103 5.39877,-6.64539 2.67395,-11.52774 -0.58136,-16.92181"
       id="path3897"
       inkscape:connector-curvature="0"
       sodipodi:nodetypes="ccccc" />
    <path
       style="fill:#abb359;fill-opacity:1;stroke:#000000;stroke-width:1.75075114px;stroke-linecap:butt;stroke-linejoin:miter;stroke-opacity:1"
       d="m 111.20421,749.09944 c 2.4335,-0.3552 4.73293,-0.86549 8.22172,0 3.17483,20.95701 4.76211,36.86397 5.75521,50.88079 8.87187,3.11618 14.92872,1.89067 20.5543,0 1.51953,3.0065 4.22692,5.51335 0,10.937 -8.03084,-0.0678 -16.09619,-0.29536 -24.66516,-2.85313 -1.22329,-17.59429 -2.28479,-35.18858 -6.16629,-52.78287 l -5.34412,-0.47553 z"
       id="path3907"
       inkscape:connector-curvature="0"
       sodipodi:nodetypes="ccccccccc" />
  </g>
</svg>
